<svg viewBox="0 0 96 96" xmlns="http://www.w3.org/2000/svg" xmlns:xlink="http://www.w3.org/1999/xlink" id="Icons_MusicNotation_M" overflow="hidden"><style>
.MsftOfcThm_Accent2_Fill {
 fill:#ED7D31; 
}
.MsftOfcThm_MainDark1_Stroke {
 stroke:#000000; 
}
</style>
<g id="Icons"><path d="M34 40.2C30.1 40.6 26.3 41.1 22.8 41.8L22.8 42.8C26.3 42.1 30.1 41.5 34 41.2L34 40.2Z" class="MsftOfcThm_Accent2_Fill MsftOfcThm_MainDark1_Stroke" stroke="#000000" stroke-width="0.882759" fill="#ED7D31"/><path d="M62.3 46.2C60.3 46 58.2 45.8 56.1 45.7 56.3 46 56.6 46.4 56.8 46.7 58.4 46.8 60 46.9 61.5 47.1 61.6 46.8 61.9 46.5 62.3 46.2Z" class="MsftOfcThm_Accent2_Fill MsftOfcThm_MainDark1_Stroke" stroke="#000000" stroke-width="0.882759" fill="#ED7D31"/><path d="M40 40.7C42.2 40.6 44.5 40.5 46.8 40.5L46.8 39.5C44.5 39.5 42.2 39.6 40 39.7L40 40.7Z" class="MsftOfcThm_Accent2_Fill MsftOfcThm_MainDark1_Stroke" stroke="#000000" stroke-width="0.882759" fill="#ED7D31"/><path d="M34 34.2C30.1 34.6 26.3 35.1 22.8 35.8L22.8 36.8C26.3 36.1 30.1 35.5 34 35.2L34 34.2Z" class="MsftOfcThm_Accent2_Fill MsftOfcThm_MainDark1_Stroke" stroke="#000000" stroke-width="0.882759" fill="#ED7D31"/><path d="M58 51.8C58 52.1 58 52.5 58 52.8 58.9 52.9 59.7 52.9 60.6 53 60.6 52.9 60.5 52.8 60.5 52.7 60.4 52.5 60.3 52.2 60.3 51.9 59.4 52 58.7 51.9 58 51.8Z" class="MsftOfcThm_Accent2_Fill MsftOfcThm_MainDark1_Stroke" stroke="#000000" stroke-width="0.882759" fill="#ED7D31"/><path d="M22.8 48.8C23.9 48.6 25.1 48.4 26.2 48.2 26.2 47.9 26.2 47.5 26.3 47.2 25.1 47.4 23.9 47.6 22.8 47.8L22.8 48.8Z" class="MsftOfcThm_Accent2_Fill MsftOfcThm_MainDark1_Stroke" stroke="#000000" stroke-width="0.882759" fill="#ED7D31"/><path d="M67.8 35.9 67.8 34.9C61.2 34 54.6 33.5 48 33.5 45.3 33.5 42.6 33.6 40 33.7L40 34.7C42.6 34.6 45.3 34.5 48 34.5 54.6 34.5 61.2 35 67.8 35.9Z" class="MsftOfcThm_Accent2_Fill MsftOfcThm_MainDark1_Stroke" stroke="#000000" stroke-width="0.882759" fill="#ED7D31"/><path d="M73.8 35.9 73.8 36.9C79.6 38 85.3 39.8 90.6 42.4L91.1 41.5C85.6 38.9 79.8 37 73.8 35.9Z" class="MsftOfcThm_Accent2_Fill MsftOfcThm_MainDark1_Stroke" stroke="#000000" stroke-width="0.882759" fill="#ED7D31"/><path d="M46.8 45.5C44.5 45.5 42.2 45.6 40 45.7L40 46C40 46.1 40 46.2 40 46.2 40 46.4 40 46.5 40 46.7 42.2 46.6 44.5 46.5 46.8 46.5L46.8 45.5Z" class="MsftOfcThm_Accent2_Fill MsftOfcThm_MainDark1_Stroke" stroke="#000000" stroke-width="0.882759" fill="#ED7D31"/><path d="M71.8 53.5C71.5 53.8 71.2 54.1 70.8 54.3 78.6 55.7 85.5 57.7 90.6 60.4L91.1 59.5C84.9 56.6 78.5 54.6 71.8 53.5Z" class="MsftOfcThm_Accent2_Fill MsftOfcThm_MainDark1_Stroke" stroke="#000000" stroke-width="0.882759" fill="#ED7D31"/><path d="M91 65.6C82.7 61.3 69.9 58.5 55.8 57.8 54.9 58.4 53.7 58.4 52.8 57.9L52.8 58.7C68 59.2 81.9 62.1 90.6 66.6L91 65.6Z" class="MsftOfcThm_Accent2_Fill MsftOfcThm_MainDark1_Stroke" stroke="#000000" stroke-width="0.882759" fill="#ED7D31"/><path d="M40 58.7C40.2 58.3 40.5 58 40.8 57.7 26.3 58.4 13.2 61.3 4.8 65.7L5.3 66.6C13.3 62.3 26 59.5 40 58.7Z" class="MsftOfcThm_Accent2_Fill MsftOfcThm_MainDark1_Stroke" stroke="#000000" stroke-width="0.882759" fill="#ED7D31"/><path d="M73.8 47.9 73.8 48.9C79.6 50 85.3 51.8 90.6 54.4L91.1 53.5C85.6 50.9 79.8 49 73.8 47.9Z" class="MsftOfcThm_Accent2_Fill MsftOfcThm_MainDark1_Stroke" stroke="#000000" stroke-width="0.882759" fill="#ED7D31"/><path d="M73.8 41.9 73.8 42.9C79.6 44 85.3 45.8 90.6 48.4L91.1 47.5C85.6 44.9 79.8 43 73.8 41.9Z" class="MsftOfcThm_Accent2_Fill MsftOfcThm_MainDark1_Stroke" stroke="#000000" stroke-width="0.882759" fill="#ED7D31"/><path d="M46.8 52.5 46.8 51.5C43.3 51.5 39.9 51.7 36.6 51.9 36.2 52.1 35.8 52.4 35.4 52.5 34.4 53 33.2 53.2 32.1 53.2 31.2 53.2 30.2 53 29.3 52.6 26.1 53 23.1 53.6 20.2 54.2 19.6 54.7 18.9 55.1 18.1 55.4 17 55.9 15.9 56.1 14.8 56.1 14.3 56.1 13.9 56.1 13.4 56L13.4 56C10.4 56.9 7.5 58.1 4.8 59.5L5.3 60.4C14.6 55.6 30.1 52.7 46.8 52.5Z" class="MsftOfcThm_Accent2_Fill MsftOfcThm_MainDark1_Stroke" stroke="#000000" stroke-width="0.882759" fill="#ED7D31"/><path d="M67.8 41.9 67.8 40.9C62.8 40.2 57.8 39.7 52.8 39.6L52.8 40.5C52.8 40.5 52.8 40.6 52.8 40.6 57.8 40.7 62.8 41.2 67.8 41.9Z" class="MsftOfcThm_Accent2_Fill MsftOfcThm_MainDark1_Stroke" stroke="#000000" stroke-width="0.882759" fill="#ED7D31"/><path d="M12.9 45.4C13.1 45.3 13.4 45.1 13.7 45 14.6 44.6 15.5 44.4 16.4 44.3 16.5 44.3 16.7 44.2 16.8 44.2L16.8 43.2C12.6 44.2 8.6 45.7 4.8 47.7L5.3 48.6C7.7 47.3 10.2 46.2 12.9 45.4Z" class="MsftOfcThm_Accent2_Fill MsftOfcThm_MainDark1_Stroke" stroke="#000000" stroke-width="0.882759" fill="#ED7D31"/><path d="M16.8 38.2 16.8 37.2C12.6 38.2 8.6 39.7 4.8 41.7L5.3 42.6C8.9 40.7 12.8 39.2 16.8 38.2Z" class="MsftOfcThm_Accent2_Fill MsftOfcThm_MainDark1_Stroke" stroke="#000000" stroke-width="0.882759" fill="#ED7D31"/><path d="M9.3 52.7C9.2 52.4 9.1 52 9.1 51.7 7.6 52.3 6.2 52.9 4.8 53.6L5.3 54.5C6.5 53.9 7.8 53.3 9.3 52.7Z" class="MsftOfcThm_Accent2_Fill MsftOfcThm_MainDark1_Stroke" stroke="#000000" stroke-width="0.882759" fill="#ED7D31"/><path d="M44.4 57.6C41.8 58.7 40.4 61.1 41.2 63 41.9 64.3 43.3 65.1 44.8 65 45.7 65 46.5 64.8 47.3 64.5 49.1 63.9 50.5 62.2 50.7 60.3 50.7 60.3 50.7 60.2 50.7 60.2L50.7 45.7C51 46.1 51.3 46.4 51.6 46.8 52.9 48 53.7 49.6 53.9 51.3 54 52.5 53.8 53.7 53.3 54.8 53 55.3 53.2 55.9 53.6 56.2 54 56.5 54.7 56.3 55 55.9 55.8 54.4 56.1 52.8 55.9 51.1 55.6 49 54.7 47 53.1 45.5 51.8 44.2 50.9 42.5 50.7 40.7L50.7 39C50.7 38.4 50.3 38 49.7 38L49.7 38C49.1 38 48.7 38.4 48.7 39L48.7 57.4C47.4 56.8 45.8 56.9 44.4 57.6ZM48.7 59.8C49 60.6 48.2 61.9 46.6 62.6 44.9 63.3 43.4 63 43.1 62.2 42.8 61.4 43.6 60.1 45.2 59.4 45.8 59.2 46.4 59 47 59 47.7 59 48.3 59.2 48.7 59.8 48.7 59.8 48.7 59.8 48.7 59.8Z" class="MsftOfcThm_Accent2_Fill MsftOfcThm_MainDark1_Stroke" stroke="#000000" stroke-width="0.882759" fill="#ED7D31"/><path d="M65.8 54C66.7 54 67.5 53.8 68.3 53.5 70.1 52.9 71.5 51.2 71.7 49.3 71.7 49.3 71.7 49.2 71.7 49.2L71.7 28C71.7 27.4 71.3 27 70.7 27L70.7 27C70.1 27 69.7 27.4 69.7 28L69.7 46.4C68.3 45.9 66.7 46 65.3 46.6 62.7 47.7 61.3 50.1 62.1 52 62.9 53.3 64.3 54.1 65.8 54ZM66.2 48.4C66.8 48.2 67.4 48 68 48 68.7 47.9 69.4 48.2 69.7 48.8 70 49.6 69.2 50.9 67.6 51.6 66 52.3 64.4 52 64.1 51.2 63.8 50.4 64.5 49.1 66.2 48.4Z" class="MsftOfcThm_Accent2_Fill MsftOfcThm_MainDark1_Stroke" stroke="#000000" stroke-width="0.882759" fill="#ED7D31"/><path d="M32 51.3C32.9 51.3 33.7 51.1 34.5 50.8 36.7 49.9 38 48 37.9 46.3 37.9 46.2 37.9 46.2 37.9 46.1L37.9 27.7 18.7 32.2 18.7 46.7C17.3 46.2 15.7 46.3 14.3 46.9 11.7 48 10.3 50.4 11.1 52.3 11.6 53.3 12.6 54 13.7 54.2 14 54.3 14.4 54.3 14.7 54.3 15.6 54.3 16.4 54.1 17.2 53.8 19 53.2 20.4 51.5 20.6 49.6 20.6 49.6 20.6 49.5 20.6 49.5L20.6 33.8 36 30.3 36 43.7C34.6 43.2 33 43.2 31.6 43.9 30.5 44.4 29.5 45.1 28.8 46.1 28.1 47 28 48.2 28.4 49.3 29.1 50.6 30.5 51.4 32 51.3ZM16.6 51.9C15.9 52.2 15 52.3 14.2 52.2 13.7 52.1 13.3 51.9 13.1 51.5 12.8 50.7 13.6 49.4 15.2 48.7 15.8 48.5 16.4 48.3 17 48.3 17.7 48.2 18.4 48.5 18.7 49.1 19 49.9 18.2 51.2 16.6 51.9ZM30.5 47.2C31 46.5 31.6 46 32.4 45.7 33 45.5 33.6 45.3 34.2 45.3 34.9 45.2 35.6 45.5 35.9 46.1 36.2 46.9 35.4 48.2 33.8 48.9 32.2 49.6 30.6 49.3 30.3 48.5 30.2 48.1 30.2 47.6 30.5 47.2Z" class="MsftOfcThm_Accent2_Fill MsftOfcThm_MainDark1_Stroke" stroke="#000000" stroke-width="0.882759" fill="#ED7D31"/></g></svg>