<svg viewBox="0 0 96 96" xmlns="http://www.w3.org/2000/svg" xmlns:xlink="http://www.w3.org/1999/xlink" id="Icons_TrebleClef" overflow="hidden"><style>
.MsftOfcThm_Accent2_Fill {
 fill:#ED7D31; 
}
.MsftOfcThm_MainDark1_Stroke {
 stroke:#000000; 
}
</style>
<path d="M61.46 51.32C58.92 43.64 50.98 43.43 50.86 43.44L50 35.25C55 30.69 59 24.06 59 16.37 59 5 56 4 54.31 3.83 52.62 3.66 48.7 6.23 46.38 12.05 44.06 17.87 45.17 27.05 45.48 29.54 45.48 29.54 31.13 37.67 31.27 52.54 31.27 54.97 32.88 68.82 50.46 68.78 51.1767 71.6502 51.5129 74.6021 51.46 77.56 51.03 82.56 48.17 83.83 45.87 83.98 48.1867 81.6107 48.144 77.812 45.7747 75.4953 43.4054 73.1786 39.6067 73.2212 37.29 75.5905 36.1951 76.7103 35.5814 78.2139 35.58 79.78 35.6219 81.9333 36.707 83.932 38.49 85.14 46.28 90.83 55.74 85.3 54.95 76.68 54.85 75.59 54.1 69.4 53.89 67.74 53.89 67.74 58.4 65.74 60.4 62.28 62.1828 58.9088 62.5637 54.9704 61.46 51.32ZM53.83 13.26C56 14 55 18.39 54.31 20 53.62 21.61 51 26.42 48.93 27.23 48 18.42 51 13 53.83 13.26ZM38.1 60.3C31.17 45.08 46.85 37.11 47 37 47.2 38.65 47.25 42.55 47.45 44.21 40.63 46.63 39.63 52.52 40 55.5 40.9 62.65 47.93 63.64 48.37 62.5 48.5687 62.135 48.5209 61.6851 48.25 61.37 42.04 54.49 48.01 51.57 48.34 51.45L50 65.34C44.88 66.5 39.38 63.13 38.1 60.3ZM53.39 64.11 51.88 50.88C55.3 50.5 61.3 57.29 53.39 64.11Z" class="MsftOfcThm_Accent2_Fill MsftOfcThm_MainDark1_Stroke" stroke="#000000" stroke-width="0.882759" fill="#ED7D31"/></svg>