<svg viewBox="0 0 96 96" xmlns="http://www.w3.org/2000/svg" xmlns:xlink="http://www.w3.org/1999/xlink" id="Icons_TrebleClef_M" overflow="hidden"><style>
.MsftOfcThm_Accent2_Fill {
 fill:#ED7D31; 
}
.MsftOfcThm_MainDark1_Stroke {
 stroke:#000000; 
}
</style>
<g id="Icons"><path d="M33.172 78.566C33.391 83.8081 37.8182 87.8801 43.0603 87.6611 48.0786 87.4514 52.0665 83.3717 52.162 78.35L51.431 69.67C57.937 68.4 65.165 63.411 65.165 54 65.1502 47.3787 59.7863 42.0148 53.165 42 51.8019 42.0022 50.4504 42.2513 49.176 42.735L48.05 28.982C52.7 25 56.71 21.072 57.161 16.09 57.6434 12.3397 56.7775 8.54006 54.718 5.369 54.1869 4.59322 53.302 4.13573 52.362 4.151 51.4263 4.16551 50.5612 4.65147 50.062 5.443L49.1 6.958C46.3043 11.3624 45.022 16.5587 45.448 21.758L45.969 28.124C45.595 28.44 45.2177 28.758 44.837 29.078 37.962 34.873 30.165 41.44 30.165 52 30.165 65.113 41.206 70 48.165 70 48.583 70 49.012 69.981 49.447 69.946L50.165 78.434C50.1696 82.5712 46.8195 85.9287 42.6824 85.9334 40.3014 85.936 38.061 84.8066 36.647 82.891 36.6436 82.8867 36.6443 82.8804 36.6486 82.8769 36.6509 82.8751 36.654 82.8743 36.657 82.875 38.1791 83.245 39.7792 82.7176 40.783 81.515 41.6324 80.7382 42.131 79.6505 42.165 78.5 42.1585 76.0048 40.1305 73.9873 37.6353 73.9937 37.1134 73.9951 36.5956 74.0869 36.105 74.265 34.3265 74.9056 33.1492 76.6028 33.172 78.493ZM37.665 76C39.0457 75.9966 40.1677 77.1132 40.1711 78.4939 40.1745 79.8746 39.058 80.9966 37.6773 81 36.3199 81.0033 35.2078 79.9229 35.172 78.566 35.172 78.537 35.172 78.508 35.172 78.478 35.184 77.1086 36.2956 76.0038 37.665 76ZM50.792 8.03 51.754 6.515C51.8926 6.29188 52.1353 6.1547 52.398 6.151L52.411 6.151C52.6748 6.14941 52.9217 6.28055 53.068 6.5 54.8616 9.28844 55.6059 12.6236 55.168 15.91 54.818 19.774 51.685 23.132 47.847 26.51L47.447 21.598C47.0661 16.8327 48.2397 12.0722 50.792 8.03ZM48.165 68C41.979 68 32.165 63.656 32.165 52 32.165 42.371 39.265 36.391 46.13 30.608L46.173 30.571 47.246 43.671C44.2228 45.3786 42.3 48.5305 42.165 52 42.116 55.2698 43.8642 58.3031 46.718 59.9 47.2115 60.1485 47.813 59.95 48.0615 59.4565 48.31 58.963 48.1115 58.3615 47.618 58.113 45.4389 56.857 44.1158 54.5147 44.165 52 44.165 47.421 48.917 44 53.165 44 58.6828 44.0121 63.1529 48.4822 63.165 54 63.165 63.656 54.394 68 48.165 68Z" class="MsftOfcThm_Accent2_Fill MsftOfcThm_MainDark1_Stroke" stroke="#000000" stroke-width="0.882759" fill="#ED7D31"/></g></svg>