<svg viewBox="0 0 96 96" xmlns="http://www.w3.org/2000/svg" xmlns:xlink="http://www.w3.org/1999/xlink" id="Icons_Music_M" overflow="hidden"><style>
.MsftOfcThm_Accent2_Fill {
 fill:#ED7D31; 
}
.MsftOfcThm_MainDark1_Stroke {
 stroke:#000000; 
}
</style>
<g id="Icons"><path d="M80 59C78.7948 57.9243 77.31 57.2112 75.717 56.943 69.7594 56.0592 63.8108 58.5999 60.33 63.515 58.8298 65.5566 58.4644 68.2187 59.359 70.589 60.569 73.419 63.776 74.989 67.566 74.989 69.7002 74.9699 71.8088 74.5213 73.766 73.67 78.737 71.546 81.959 67.422 81.991 63.639 81.991 63.621 82.001 63.606 82.001 63.588L82.001 13.5 33.037 24.845 32.987 68.283C31.7816 67.2045 30.2951 66.4898 28.7 66.222 25.7793 65.7336 22.7794 66.1201 20.078 67.333 13.978 69.94 10.505 75.564 12.344 79.87 13.4384 82.1547 15.614 83.7309 18.126 84.059 18.912 84.2094 19.7107 84.2841 20.511 84.282 22.6585 84.2597 24.7795 83.8057 26.748 82.947 29.4922 81.8332 31.8459 79.9329 33.513 77.485 34.4409 76.12 34.9514 74.5143 34.982 72.864L34.982 72.856 35.036 26.435 80 16.018ZM31.828 76.4C30.3776 78.51 28.3367 80.145 25.961 81.1 23.6275 82.1563 21.034 82.4996 18.506 82.087 16.65 81.8737 15.0254 80.742 14.182 79.075 12.775 75.785 15.772 71.339 20.861 69.164 22.5802 68.4155 24.4321 68.0197 26.307 68 26.9811 67.998 27.6538 68.0607 28.316 68.187 30.1723 68.4011 31.797 69.5329 32.641 71.2 33.2593 72.96 32.954 74.9127 31.828 76.4ZM72.979 71.824C67.89 74 62.605 73.094 61.2 69.8 60.5791 68.0378 60.8849 66.0816 62.014 64.593 63.4644 62.483 65.5053 60.848 67.881 59.893 69.599 59.1406 71.4506 58.741 73.326 58.718 74.0005 58.7158 74.6736 58.7788 75.336 58.906 77.192 59.1193 78.8166 60.251 79.66 61.918 81.065 65.207 78.068 69.653 72.979 71.828Z" class="MsftOfcThm_Accent2_Fill MsftOfcThm_MainDark1_Stroke" stroke="#000000" stroke-width="0.882759" fill="#ED7D31"/></g></svg>