<svg viewBox="0 0 96 96" xmlns="http://www.w3.org/2000/svg" xmlns:xlink="http://www.w3.org/1999/xlink" id="Icons_MusicNote_M" overflow="hidden"><style>
.MsftOfcThm_Accent2_Fill {
 fill:#ED7D31; 
}
.MsftOfcThm_MainDark1_Stroke {
 stroke:#000000; 
}
</style>
<g id="Icons"><path d="M51.32 29.461C52.6927 32.1428 54.418 34.6288 56.45 36.853 60.301 41.429 64.281 46.161 64.281 56.859 64.2855 56.8927 64.2922 56.9261 64.301 56.959 64.3073 57.0269 64.3207 57.0939 64.341 57.159 64.3787 57.2782 64.4388 57.3892 64.518 57.486 64.5621 57.5381 64.611 57.586 64.664 57.629 64.691 57.65 64.706 57.68 64.735 57.699 64.7674 57.7166 64.8008 57.7322 64.835 57.746 64.8672 57.7633 64.9007 57.7784 64.935 57.791 65.0446 57.8347 65.1611 57.8584 65.279 57.861L65.279 57.861C65.3975 57.8578 65.5146 57.8341 65.625 57.791 65.648 57.782 65.67 57.775 65.692 57.765 65.7948 57.7192 65.8889 57.656 65.97 57.578 65.985 57.564 65.995 57.547 66.009 57.532 66.0477 57.4934 66.0832 57.4515 66.115 57.407 66.263 57.181 69.715 51.777 68.863 43.317 68.082 35.5 64 30.89 60.048 26.433 55.948 21.813 52.083 17.448 51.336 9.577 51.3253 9.52831 51.3109 9.48051 51.293 9.434 51.2808 9.36849 51.2617 9.30446 51.236 9.243 51.2051 9.18501 51.1682 9.13039 51.126 9.08 51.0928 9.02965 51.0546 8.98275 51.012 8.94 50.9096 8.86363 50.8005 8.79669 50.686 8.74 50.6254 8.72075 50.5631 8.70736 50.5 8.7 50.45 8.68484 50.3988 8.67413 50.347 8.668L50.347 8.668C50.33 8.668 50.316 8.677 50.3 8.678 50.284 8.679 50.269 8.671 50.252 8.678 50.2022 8.68856 50.1534 8.70328 50.106 8.722 49.9758 8.74105 49.8543 8.7985 49.757 8.887 49.6098 9.00492 49.4932 9.15652 49.417 9.329 49.3975 9.39225 49.3842 9.45721 49.377 9.523 49.363 9.57177 49.3529 9.6216 49.347 9.672L49.287 68.032C47.8378 66.5665 45.9618 65.5976 43.928 65.264 40.4746 64.6873 36.9277 65.1451 33.734 66.58 30.4886 67.8958 27.7051 70.1425 25.734 73.037 23.922 75.859 23.515 78.798 24.589 81.312 26.004 84.622 29.764 86.452 34.215 86.451 36.7417 86.4279 39.2379 85.8967 41.555 84.889 44.8001 83.5726 47.5834 81.3261 49.555 78.432 50.6445 76.8321 51.244 74.9493 51.28 73.014ZM47.865 77.349C46.1114 79.9068 43.6414 81.8897 40.765 83.049 34.58 85.69 28.146 84.559 26.424 80.524 25.618 78.639 25.969 76.363 27.412 74.116 29.166 71.5585 31.6358 69.5757 34.512 68.416 36.591 67.5075 38.8313 67.026 41.1 67 41.9184 66.9978 42.7352 67.0741 43.539 67.228 46.161 67.739 48.048 69.058 48.853 70.943L48.853 70.943C49.658 72.826 49.308 75.1 47.865 77.349ZM57.98 35.565C54.63 31.582 51.461 27.816 51.344 20.425 51.344 20.285 51.331 19.966 51.33 19.947L51.33 17.575C51.33 17.551 51.338 17.549 51.348 17.575 53.161 21.675 55.881 24.755 58.548 27.764 62.459 32.176 66.153 36.344 66.874 43.519 67.1879 46.5317 66.9083 49.5768 66.051 52.482 66.044 52.506 66.036 52.504 66.033 52.482 65.067 44.005 61.334 39.551 57.98 35.565Z" class="MsftOfcThm_Accent2_Fill MsftOfcThm_MainDark1_Stroke" stroke="#000000" stroke-width="0.882759" fill="#ED7D31"/></g></svg>