<svg viewBox="0 0 96 96" xmlns="http://www.w3.org/2000/svg" xmlns:xlink="http://www.w3.org/1999/xlink" id="Icons_MusicNotes_M" overflow="hidden"><style>
.MsftOfcThm_Accent2_Fill {
 fill:#ED7D31; 
}
.MsftOfcThm_MainDark1_Stroke {
 stroke:#000000; 
}
</style>
<g id="Icons"><path d="M79.7 70.1 79.7 34.7 44.8 42.8 44.8 72.8C44 72.2 43.1 71.9 42.2 71.7 37.9 71.1 33.6 72.9 31.1 76.4 30 78 29.7 80 30.4 81.7 31.3 83.8 33.6 85 36.4 85 38 85 39.5 84.7 40.9 84 42.9 83.2 44.6 81.8 45.8 80.1 46.5 79.1 46.9 77.9 46.9 76.7L46.9 76.7 46.9 44.4 77.8 37.2 77.8 66.3C75.7 64.8 72.3 64.6 68.9 66 66.9 66.8 65.2 68.2 64 69.9 62.2 72.1 62.6 75.4 64.8 77.2 65.6 77.8 66.5 78.2 67.5 78.3 68.1 78.4 68.6 78.5 69.2 78.5 70.7 78.5 72.3 78.2 73.7 77.5 75.7 76.7 77.4 75.3 78.6 73.6 79.4 72.6 79.7 71.4 79.7 70.1L79.7 70.1ZM44 79C43 80.4 41.6 81.5 40 82.2 36.6 83.6 33 83.1 32.1 80.9 31.7 79.8 31.9 78.5 32.6 77.5 33.6 76.1 35 75 36.6 74.3 37.8 73.8 39 73.5 40.3 73.5 40.8 73.5 41.2 73.5 41.7 73.6 42.9 73.7 44 74.5 44.5 75.5L44.5 75.5C45 76.8 44.8 78.1 44 79L44 79ZM77 72.5C74.9 75.4 71.5 76.8 68 76.4 66.2 76.3 64.9 74.9 64.9 73.1 64.9 72.4 65.2 71.7 65.7 71.1 66.7 69.7 68.1 68.6 69.7 67.9 70.9 67.4 72.1 67.1 73.4 67.1 75.4 67.1 77 67.8 77.6 69.2 77.9 70.3 77.7 71.6 77 72.5L77 72.5Z" class="MsftOfcThm_Accent2_Fill MsftOfcThm_MainDark1_Stroke" stroke="#000000" stroke-width="0.882759" fill="#ED7D31"/><path d="M16.4 53.9C17.6 56.7 21 57.4 23.7 57.1 26.9 56.7 29.8 55 31.6 52.4 32.9 50.4 32.8 48.2 32.8 45.9L32.8 24.6 32.8 18.3C32.8 18.3 32.8 18.3 32.8 18.3 32.8 18.3 32.8 18.3 32.8 18.3 35.3 22.5 39.6 25.5 40.5 30.6 40.9 32.8 40.7 35.1 40 37.2 39.7 38 38.3 40.3 40.2 40.3 41.3 40.3 41.8 38.3 42 37.6 42.7 35.4 42.9 33 42.5 30.7 41.8 25.9 38.6 22.9 35.8 19.2 34.4 17.5 33.5 15.5 33 13.4 32.8 12.6 33 11.1 32 10.9 31.5 10.8 30.9 11.1 30.8 11.6 30.8 11.7 30.8 11.7 30.8 11.8 30.7 12.9 30.7 13.9 30.8 15L30.8 32 30.8 44.9C27.5 42.5 22.6 43.8 19.6 45.9 17.2 47.9 15.1 51 16.4 53.9ZM26.4 45.9C28.4 45.9 31 46.9 30.7 49.3 30.5 51.5 28.4 53.2 26.6 54.2 24.5 55.2 21.6 55.8 19.4 54.6 17.6 53.5 17.7 51.4 18.8 49.8 20.6 47.3 23.4 45.9 26.4 45.9Z" class="MsftOfcThm_Accent2_Fill MsftOfcThm_MainDark1_Stroke" stroke="#000000" stroke-width="0.882759" fill="#ED7D31"/></g></svg>