<svg viewBox="0 0 96 96" xmlns="http://www.w3.org/2000/svg" xmlns:xlink="http://www.w3.org/1999/xlink" id="Icons_MusicNotation" overflow="hidden"><style>
.MsftOfcThm_Accent2_Fill {
 fill:#ED7D31; 
}
.MsftOfcThm_MainDark1_Stroke {
 stroke:#000000; 
}
</style>
<path d="M45.7 59.1 45 59.3C42.4 60.2 40.8 62.4 41.4 64.1 42 65.8 44.7 66.5 47.3 65.5 48.9 65 50.2 63.8 50.9 62.3L50.9 59C65.9 59.1 80.2 61.6 90.5 65.9L90.9 65C80.4 60.6 66.2 58.2 50.9 58L50.9 53C51.9 53 52.9 53 53.9 53.1 54.4 54.8 54 56.3 55.2 56.3 56.1 56.3 56.7 55 56.8 53.2 69.6 53.9 81.5 56.2 90.4 59.9L90.8 59C83.4 56.1 75.7 54.1 67.8 53.2 69.6 52.8 71.1 51.6 71.9 49.9L71.9 48.9C78.3 49.9 84.5 51.6 90.5 54L90.9 53.1C84.8 50.7 78.4 48.9 71.9 47.9L71.9 42.9C78.3 43.9 84.5 45.6 90.5 48L90.9 47.1C84.8 44.7 78.4 42.9 71.9 41.9L71.9 36.9C78.3 37.9 84.5 39.6 90.5 42L90.9 41.1C84.8 38.7 78.4 36.9 71.9 35.9L71.9 28.4C71.9 27.7 71.4 27.2 70.7 27.2 70 27.2 69.5 27.7 69.5 28.4L69.5 35.5C62.8 34.5 56.2 34 49.5 34 45.7 34 41.9 34.2 38.2 34.5L38.2 27.6 19.2 32 19.2 37.4C14.3 38.6 9.5 40.3 4.9 42.5L5.3 43.4C9.7 41.2 14.4 39.6 19.2 38.4L19.2 43.4C14.3 44.6 9.5 46.3 4.9 48.5L5.3 49.4C9.7 47.2 14.4 45.6 19.2 44.4L19.2 47.4C18.1 47.2 17 47.3 16 47.7 14 48.4 12.7 49.9 12.7 51.3 10 52.2 7.5 53.2 4.9 54.5L5.3 55.4C7.7 54.2 10.3 53.2 12.8 52.3 13.5 53.7 15.7 54.2 18 53.4 19.9 52.7 21.2 51.3 21.3 50 24 49.4 26.7 48.9 29.6 48.5 29.6 48.6 29.6 48.7 29.7 48.9 30.3 50.5 32.6 51 35 50.2 36.3 49.8 37.4 48.9 38.1 47.7 41.5 47.4 45 47.3 48.5 47.2L48.5 52.2C31.4 52.3 15.5 55.4 4.9 60.7L5.3 61.6C15.8 56.4 31.5 53.3 48.4 53.2L48.4 58.2C31.3 58.3 15.4 61.4 4.8 66.7L5.2 67.6C15.2 62.4 29.8 59.4 45.7 59.1L45.7 59.1ZM49.5 35C56.2 35 62.8 35.5 69.4 36.4L69.4 41.4C63.2 40.5 56.8 40 50.5 40 50.3 39.8 50 39.6 49.6 39.6 49.3 39.6 49 39.7 48.7 40 45.1 40 41.6 40.2 38.2 40.4L38.2 35.4C41.9 35.2 45.7 35 49.5 35ZM21.3 34.5 36.1 31 36.1 34.6C31.1 35.1 26.2 35.8 21.3 36.9L21.3 34.5ZM21.3 38C26.2 36.9 31.1 36.1 36.1 35.7L36.1 40.7C31.1 41.2 26.2 41.9 21.3 43L21.3 38ZM21.3 44C26.2 42.9 31.1 42.1 36.1 41.7L36.1 44.2C35 44 33.9 44.1 32.9 44.5 31.4 44.9 30.2 46.1 29.7 47.5 26.8 47.9 24.1 48.4 21.4 49L21.3 44ZM38.3 46.5 38.3 41.5C41.6 41.2 45 41 48.5 41L48.5 46C45 46 41.6 46.2 38.3 46.5ZM50.8 52 50.8 49.6C51 49.8 51.2 49.9 51.4 50 52.2 50.5 52.9 51.2 53.4 52L50.8 52ZM62.4 51.6C62.6 52 62.8 52.4 63.2 52.7 61.1 52.5 59 52.3 56.8 52.2 56.7 50.4 56.3 48.7 55.5 47.1 58.4 47.2 61.3 47.4 64.1 47.7 62.7 48.8 62 50.3 62.4 51.6L62.4 51.6ZM69.4 46.4C68.1 46.2 66.8 46.4 65.6 46.9 62.1 46.5 58.6 46.2 54.9 46.1 54.2 45 53.3 44 52.2 43.3 51.6 42.9 51.1 42.4 50.8 41.8L50.8 41C57 41 63.2 41.5 69.4 42.4L69.4 46.4Z" class="MsftOfcThm_Accent2_Fill MsftOfcThm_MainDark1_Stroke" stroke="#000000" stroke-width="0.882759" fill="#ED7D31"/></svg>